<?xml version="1.0" encoding="UTF-8"?>
<svg id="Layer_1" data-name="Layer 1" xmlns="http://www.w3.org/2000/svg" viewBox="0 0 753.71 671.15">
  <defs>
    <style>
      .cls-1 {
        fill: #fff;
      }
    </style>
  </defs>
  <path class="cls-1" d="M753.71,559.34v111.81h-59.58c-26.05,0-49.43-1.87-70-5.88-80.15-14.96-119.7-59.71-122.77-137.33v-102.6c0-.13,0-.4-.13-.53-.13-3.07-2.67-5.61-5.88-5.61h-82.56c0,10.55,4.81,20.31,12.82,27.12,13.23,11.22,31.93,35,31.93,78.28,0,87.5-76.41,146.28-183.55,146.28C110.88,670.89,0,535.69,0,335.44S132.39,0,318.74,0c88.97,0,160.98,25.11,214.68,69.47,15.9,13.09,30.19,27.79,42.88,44.08h55.97v111.81h-.53v.13h-144.41c-2.81-14.43-6.95-27.79-12.29-40.34-27.25-64.52-84.7-103.13-153.5-103.13-109.94,0-186.36,99.66-186.36,256.22,0,145.35,66.13,250.61,164.85,250.61,50.36,0,98.86-27.92,98.86-82.02,0-45.69-35.4-87.63-106.2-87.63v-109.01h219.22c66.26,0,119.83,53.7,119.83,119.96v121.83c0,4.01,3.21,7.35,7.21,7.35h114.75Z"/>
</svg>