<?xml version="1.0" encoding="UTF-8"?>
<svg id="Layer_1" data-name="Layer 1" xmlns="http://www.w3.org/2000/svg" viewBox="0 0 935.14 283.19">
  <defs>
    <style>
      .cls-1 {
        fill: #fff;
      }
    </style>
  </defs>
  <path class="cls-1" d="M0,142.77C0,60.08,55.39,2.35,133.4,2.35c69.82,0,114.68,37.06,131.06,94.39h-60.46c-7.41-37.06-35.11-60.07-69.43-60.07-46.03,0-78.01,41.74-78.01,107.27,0,60.85,27.69,104.93,69.04,104.93,21.06,0,41.35-11.7,41.35-34.32,0-19.11-14.82-36.66-44.47-36.66v-45.64h91.79c27.72,0,50.19,22.47,50.19,50.19v98.41h-54.61v-100.44c0-1.4-1.13-2.53-2.53-2.53h-34.53c0,4.39,1.98,8.48,5.32,11.32,5.58,4.72,13.4,14.65,13.4,32.76,0,36.66-31.98,61.24-76.84,61.24C46.42,283.19,0,226.64,0,142.77Z"/>
  <path class="cls-1" d="M274.36,85.81h54.61v72.55h.14c4.42,0,8.25-2.98,9.43-7.23,5.23-18.94,22.45-65.32,66.88-65.32h12.48v46.12h-10.92c-66.7,0-78.01,49.44-78.01,107.56v41.34h-54.61V85.81Z"/>
  <path class="cls-1" d="M428.13,280.84h54.61V85.81h-54.61v195.03Z"/>
  <path class="cls-1" d="M530.04,216.87v-82.38c0-1.68-1.36-3.05-3.05-3.05h-34.01v-45.64h.39c6.24,0,51.49-1.17,51.49-78.01V0h54.61v7.8c0,44.49-37.83,62.33-54.49,68.07-4.27,1.47-7.14,5.43-7.14,9.95h0s97.91,0,97.91,0v45.64h-48.05c-1.68,0-3.05,1.36-3.05,3.05v96.49c0,1.68,1.36,3.05,3.05,3.05h48.05v46.81h-24.96c-55,0-80.74-20.28-80.74-63.97Z"/>
  <path class="cls-1" d="M802.48,78.41c0-21.08,10.57-31.6,31.6-31.6h33.27V0h-33.27c-52.62,0-86.18,29.25-86.18,74.88v7.86c0,1.68-1.36,3.05-3.05,3.05h-34.03v45.63h34.03c1.68,0,3.05,1.36,3.05,3.05v146.38h54.58v-146.38c0-1.68,1.36-3.05,3.05-3.05h71.92c1.68,0,3.05,1.36,3.05,3.05v146.38h54.64V127.5c0-23.04-18.67-41.71-41.71-41.71h-90.94v-7.38ZM880.44,0v46.81h54.69V0h-54.69Z"/>
  <g>
    <path class="cls-1" d="M645.98,280.84h54.61V85.81h-54.61v195.03Z"/>
    <rect class="cls-1" x="645.98" y="0" width="54.61" height="50.71"/>
  </g>
  <rect class="cls-1" x="428.13" y="0" width="54.61" height="50.71"/>
</svg>